<svg xmlns="http://www.w3.org/2000/svg" xmlns:svg="http://www.w3.org/2000/svg" xmlns:xlink="http://www.w3.org/1999/xlink" id="svg3535" width="48" height="48" version="1.1"><defs id="defs3537"><radialGradient id="radialGradient9677" cx="17.813" cy="14.729" r="9.5" fx="17.813" fy="14.729" gradientTransform="matrix(0,-1,0.6315789,0,2.6079603,38.294806)" gradientUnits="userSpaceOnUse" xlink:href="#linearGradient7557"/><linearGradient id="linearGradient7557"><stop id="stop7559" offset="0" stop-color="#eeeeec" stop-opacity="1"/><stop id="stop7561" offset="1" stop-color="#eeeeec" stop-opacity="1"/></linearGradient><radialGradient id="radialGradient9679" cx="11.156" cy="2.063" r=".906" fx="11.156" fy="2.063" gradientTransform="matrix(1,0,0,0.6206897,0,0.7823276)" gradientUnits="userSpaceOnUse" xlink:href="#linearGradient7582"/><linearGradient id="linearGradient7582"><stop id="stop7584" offset="0" stop-color="#fff" stop-opacity="1"/><stop id="stop7586" offset="1" stop-color="#fff" stop-opacity="0"/></linearGradient><radialGradient id="radialGradient9681" cx="24.572" cy="41.636" r="21.39" fx="24.572" fy="41.636" gradientTransform="matrix(1,0,0,0.1983471,0,33.377652)" gradientUnits="userSpaceOnUse" xlink:href="#linearGradient3823"/><linearGradient id="linearGradient3823"><stop id="stop3825" offset="0" stop-color="#000" stop-opacity="1"/><stop id="stop3827" offset="1" stop-color="#000" stop-opacity="0"/></linearGradient><radialGradient id="radialGradient9683" cx="24.572" cy="41.636" r="21.39" fx="24.572" fy="41.636" gradientTransform="matrix(1,0,0,0.1983471,0,33.377652)" gradientUnits="userSpaceOnUse" xlink:href="#linearGradient3823"/><linearGradient id="linearGradient9685" x1="13.819" x2="36.228" y1="30.03" y2="45.195" gradientTransform="matrix(0,0.673693,-0.676136,0,37.10227,14.81577)" gradientUnits="userSpaceOnUse" xlink:href="#linearGradient6826"/><linearGradient id="linearGradient6826"><stop id="stop6828" offset="0" stop-color="#babdb6" stop-opacity="1"/><stop id="stop6830" offset="1" stop-color="#eeeeec" stop-opacity="1"/></linearGradient><linearGradient id="linearGradient9687" x1="17" x2="17" y1="45.248" y2="30.759" gradientTransform="matrix(0,0.625,-0.676136,0,37.10227,15.875)" gradientUnits="userSpaceOnUse" xlink:href="#linearGradient6958"/><linearGradient id="linearGradient6958"><stop id="stop6960" offset="0" stop-color="#000" stop-opacity="1"/><stop id="stop6962" offset="1" stop-color="#888a85" stop-opacity="0"/></linearGradient><linearGradient id="linearGradient9689" x1="15.406" x2="16.865" y1="37.344" y2="24.25" gradientTransform="matrix(0,0.673693,-0.676136,0,37.10227,14.81577)" gradientUnits="userSpaceOnUse" xlink:href="#linearGradient2816"/><linearGradient id="linearGradient2816"><stop id="stop2818" offset="0" stop-color="#fff" stop-opacity="1"/><stop id="stop2820" offset="1" stop-color="#fff" stop-opacity="0"/></linearGradient><linearGradient id="linearGradient9691" x1="33.12" x2="22.328" y1="20.5" y2="20.5" gradientTransform="matrix(0.727273,0,0,0.999999,12.27273,-34.84375)" gradientUnits="userSpaceOnUse" xlink:href="#linearGradient4542"/><linearGradient id="linearGradient4542"><stop id="stop4544" offset="0" stop-color="#888a85" stop-opacity="1"/><stop id="stop4546" offset="1" stop-color="#888a85" stop-opacity="0"/></linearGradient><linearGradient id="linearGradient9693" x1="33.259" x2="32.347" y1="45.029" y2="32.298" gradientTransform="matrix(0,0.673693,-0.676136,0,37.10227,14.81577)" gradientUnits="userSpaceOnUse" xlink:href="#linearGradient3807"/><linearGradient id="linearGradient3807"><stop id="stop3809" offset="0" stop-color="#729fcf" stop-opacity="1"/><stop id="stop3811" offset="1" stop-color="#fff" stop-opacity="1"/></linearGradient><linearGradient id="linearGradient9695" x1="7.951" x2="13.654" y1="36.095" y2="33.391" gradientUnits="userSpaceOnUse" xlink:href="#linearGradient3813"/><linearGradient id="linearGradient3813"><stop id="stop3815" offset="0" stop-color="#3465a4" stop-opacity="1"/><stop id="stop3817" offset="1" stop-color="#729fcf" stop-opacity="1"/></linearGradient><linearGradient id="linearGradient9697" x1="17" x2="17" y1="45.248" y2="30.759" gradientTransform="matrix(0,0.625,-0.676136,0,37.10227,15.875)" gradientUnits="userSpaceOnUse" xlink:href="#linearGradient6958"/><linearGradient id="linearGradient9699" x1="15.406" x2="16.865" y1="37.344" y2="24.25" gradientTransform="matrix(0,0.673693,-0.676136,0,37.10227,14.81577)" gradientUnits="userSpaceOnUse" xlink:href="#linearGradient2816"/><linearGradient id="linearGradient9701" x1="33.12" x2="22.328" y1="20.5" y2="20.5" gradientTransform="matrix(0.727273,0,0,0.999999,12.27273,-34.84375)" gradientUnits="userSpaceOnUse" xlink:href="#linearGradient3801"/><linearGradient id="linearGradient3801"><stop id="stop3803" offset="0" stop-color="#729fcf" stop-opacity="1"/><stop id="stop3805" offset="1" stop-color="#729fcf" stop-opacity="0"/></linearGradient><linearGradient id="linearGradient9703" x1="1.674" x2="47.084" y1="24.765" y2="45.634" gradientTransform="matrix(0,0.673693,-0.676136,0,37.10227,14.81577)" gradientUnits="userSpaceOnUse" xlink:href="#linearGradient7614"/><linearGradient id="linearGradient7614"><stop id="stop7616" offset="0" stop-color="#fcaf3e" stop-opacity="1"/><stop id="stop7628" offset=".487" stop-color="#fff6a1" stop-opacity="1"/><stop id="stop7618" offset="1" stop-color="#fcaf3e" stop-opacity="1"/></linearGradient><linearGradient id="linearGradient9705" x1="9.173" x2="19.208" y1="35.542" y2="33.578" gradientUnits="userSpaceOnUse" xlink:href="#linearGradient3793"/><linearGradient id="linearGradient3793"><stop id="stop3795" offset="0" stop-color="#ce5c00" stop-opacity="1"/><stop id="stop3797" offset="1" stop-color="#f57900" stop-opacity="1"/></linearGradient><linearGradient id="linearGradient9707" x1="17" x2="17" y1="45.248" y2="30.759" gradientTransform="matrix(0,0.625,-0.676136,0,37.10227,15.875)" gradientUnits="userSpaceOnUse" xlink:href="#linearGradient3787"/><linearGradient id="linearGradient3787"><stop id="stop3789" offset="0" stop-color="#f57900" stop-opacity="1"/><stop id="stop3791" offset="1" stop-color="#f57900" stop-opacity="0"/></linearGradient><linearGradient id="linearGradient9709" x1="15.406" x2="16.865" y1="37.344" y2="24.25" gradientTransform="matrix(0,0.673693,-0.676136,0,37.10227,14.81577)" gradientUnits="userSpaceOnUse" xlink:href="#linearGradient2816"/><linearGradient id="linearGradient9711" x1="33.12" x2="22.328" y1="20.5" y2="20.5" gradientTransform="matrix(0.727273,0,0,0.999999,12.27273,-34.84375)" gradientUnits="userSpaceOnUse" xlink:href="#linearGradient3781"/><linearGradient id="linearGradient3781"><stop id="stop3783" offset="0" stop-color="#ce5c00" stop-opacity="1"/><stop id="stop3785" offset="1" stop-color="#ce5c00" stop-opacity="0"/></linearGradient><radialGradient id="radialGradient9713" cx="23.681" cy="5.341" r="5.055" fx="23.681" fy="5.341" gradientTransform="matrix(-0.1907818,1.5922835,-1.4345654,1.1802872,15.217766,-19.515538)" gradientUnits="userSpaceOnUse" xlink:href="#linearGradient7491"/><linearGradient id="linearGradient7491"><stop id="stop7493" offset="0" stop-color="#eeeeec" stop-opacity="1"/><stop id="stop7495" offset="1" stop-color="#babdb6" stop-opacity="1"/></linearGradient><radialGradient id="radialGradient9715" cx="11.156" cy="2.063" r=".906" fx="11.156" fy="2.063" gradientTransform="matrix(1,0,0,0.6206897,0,0.7823276)" gradientUnits="userSpaceOnUse" xlink:href="#linearGradient7592"/><linearGradient id="linearGradient7592"><stop id="stop7594" offset="0" stop-color="#fff" stop-opacity="1"/><stop id="stop7596" offset="1" stop-color="#fff" stop-opacity="0"/></linearGradient><radialGradient id="radialGradient9717" cx="24.091" cy="5.053" r="4.492" fx="24.091" fy="5.053" gradientTransform="matrix(-0.3629926,-1.6372128,1.8500902,-2.1525103,1.7477513,74.824986)" gradientUnits="userSpaceOnUse" xlink:href="#linearGradient7549"/><linearGradient id="linearGradient7549"><stop id="stop7551" offset="0" stop-color="#fff" stop-opacity="1"/><stop id="stop7553" offset="1" stop-color="#eeeeec" stop-opacity="1"/></linearGradient><linearGradient id="linearGradient9719" x1="20.723" x2="22.697" y1="16.83" y2="15.894" gradientTransform="matrix(-0.235981,-1.1304264,0.6373638,-0.915432,7.1985993,53.314931)" gradientUnits="userSpaceOnUse" xlink:href="#linearGradient7567"/><linearGradient id="linearGradient7567"><stop id="stop7569" offset="0" stop-color="#000" stop-opacity="1"/><stop id="stop7571" offset="1" stop-color="#000" stop-opacity="0"/></linearGradient></defs><metadata id="metadata3540"/><g id="layer1"><g id="g9613" display="inline" transform="translate(0.29518839,0.30025136)"><path id="path9615" fill="none" stroke="#babdb6" stroke-dashoffset=".7" stroke-linecap="round" stroke-linejoin="miter" stroke-miterlimit="4" stroke-opacity="1" stroke-width="3" d="m 13.078183,14.013633 c 0.521046,2.495981 -1.483158,8.00767 -4.473669,12.302877 -2.9905107,4.295207 -5.8404697,5.755448 -6.3615157,3.259467"/><path id="path9617" fill="none" stroke="url(#radialGradient9677)" stroke-dashoffset=".7" stroke-linecap="round" stroke-linejoin="miter" stroke-miterlimit="4" stroke-opacity="1" stroke-width="1" d="m 6.7166663,17.273099 c 2.9905107,-4.295207 5.8404707,-5.755448 6.3615167,-3.259466 0.521046,2.495981 -1.483158,8.00767 -4.473669,12.302877 -2.9905107,4.295207 -5.8404697,5.755448 -6.3615157,3.259467 -0.521046,-2.495982 1.483157,-8.007671 4.473668,-12.302878 z"/><path id="path9619" fill="url(#radialGradient9679)" fill-opacity="1" fill-rule="evenodd" stroke="none" d="m 12.0625,2.0625 c 0,0.3106602 -0.405742,0.5625 -0.90625,0.5625 C 10.655742,2.625 10.25,2.3731602 10.25,2.0625 10.25,1.7518398 10.655742,1.5 11.15625,1.5 c 0.500508,0 0.90625,0.2518398 0.90625,0.5625 z" display="inline" enable-background="accumulate" overflow="visible" transform="matrix(0,-1.1034483,1.7777778,0,6.6698473,35.658005)" visibility="visible" style="marker:none"/><g id="g9621" opacity=".822"><path id="path9623" fill="url(#radialGradient9681)" fill-opacity="1" stroke="none" d="m 45.961941,41.63604 c 0,2.343145 -9.576621,4.24264 -21.389981,4.24264 -11.813359,0 -21.3899799,-1.899495 -21.3899799,-4.24264 0,-2.343146 9.5766209,-4.242641 21.3899799,-4.242641 11.81336,0 21.389981,1.899495 21.389981,4.242641 z" opacity=".152" transform="matrix(1.0730482,0,0,1.3541667,-2.2852925,-15.780108)"/><path id="path9625" fill="url(#radialGradient9683)" fill-opacity="1" stroke="none" d="m 45.961941,41.63604 c 0,2.343145 -9.576621,4.24264 -21.389981,4.24264 -11.813359,0 -21.3899799,-1.899495 -21.3899799,-4.24264 0,-2.343146 9.5766209,-4.242641 21.3899799,-4.242641 11.81336,0 21.389981,1.899495 21.389981,4.242641 z" opacity=".152" transform="matrix(0.4974282,0,0,0.6617912,14.622682,12.732021)"/></g><g id="g9627" transform="matrix(1.0960268,-0.6327913,0.6327913,1.0960268,-15.036604,-0.7801997)"><path id="path9629" fill="url(#linearGradient9685)" fill-opacity="1" fill-rule="evenodd" stroke="#888a85" stroke-dasharray="none" stroke-linecap="round" stroke-linejoin="miter" stroke-miterlimit="4" stroke-opacity="1" stroke-width=".79" d="m 13.4375,16.5 c -3.9188838,-1e-6 -7.09375,3.157775 -7.09375,7.0625 2e-7,2.818198 1.6046259,5.300595 4,6.4375 l 0,1.5 1.5,1.5 -1.5,1.5 0,1 2,1 0,1 -2,1 0,1 1.5,1.5 -1.5,1.5 0,1 2.5,2 2.5,0 1,-1.5 0,-14 c 2.372429,-1.145434 4,-3.698516 4,-6.5 0,-3.904724 -2.987366,-7 -6.90625,-7 z m -0.09375,2 c 1.104,0 2,0.896 2,2 0,1.104 -0.896,2 -2,2 -1.104,0 -2,-0.896 -2,-2 0,-1.104 0.896,-2 2,-2 z"/><path id="path9631" fill="url(#linearGradient9687)" fill-opacity="1" fill-rule="evenodd" stroke="none" d="M 18.846598,24 8.028422,24 c 0,2.76 2.423271,5 5.409088,5 2.985817,0 5.409088,-2.24 5.409088,-5 z" opacity=".3"/><path id="path9633" fill="none" stroke="#fff" stroke-dasharray="none" stroke-linecap="round" stroke-linejoin="miter" stroke-miterlimit="4" stroke-opacity="1" stroke-width=".79" d="m 13.4375,17.28125 c -3.5016836,-1e-6 -6.3125,2.797504 -6.3125,6.28125 2e-7,2.523398 1.4413689,4.743258 3.5625,5.75 A 0.7767123,0.7767123 0 0 1 11.125,30 l 0,1.15625 1.28125,1.28125 a 0.7767123,0.7767123 0 0 1 0,1.125 l -1.28125,1.28125 0,0.1875 1.5625,0.78125 A 0.7767123,0.7767123 0 0 1 13.125,36.5 l 0,1 a 0.7767123,0.7767123 0 0 1 -0.4375,0.6875 l -1.5625,0.78125 0,0.1875 1.28125,1.28125 a 0.7767123,0.7767123 0 0 1 0,1.125 l -1.28125,1.28125 0,0.28125 2,1.59375 1.78125,0 0.65625,-0.96875 0,-13.75 A 0.7767123,0.7767123 0 0 1 16,29.3125 c 2.090762,-1.009442 3.5625,-3.311816 3.5625,-5.8125 0,-3.508607 -2.615059,-6.21875 -6.125,-6.21875 z m -0.09375,0.4375 c 1.524208,0 2.78125,1.257042 2.78125,2.78125 0,1.524208 -1.257042,2.78125 -2.78125,2.78125 -1.524208,0 -2.78125,-1.257042 -2.78125,-2.78125 0,-1.524208 1.257042,-2.78125 2.78125,-2.78125 z" xlink:href="#path1884"/><path id="path9635" fill="url(#linearGradient9689)" fill-opacity="1" fill-rule="evenodd" stroke="none" d="m 13.40625,17.625 c -0.218712,0.0043 -0.466555,0.03416 -0.6875,0.0625 -0.93254,0.119629 -1.775868,0.460272 -2.53125,0.9375 0.173643,0.634817 0.42464,1.158079 0.71875,1.625 0.125954,-1.319354 1.241853,-2.34375 2.59375,-2.34375 1.436081,0 2.59375,1.157668 2.59375,2.59375 0,1.436083 -1.157669,2.59375 -2.59375,2.59375 -0.07717,0 -0.14697,-0.02119 -0.21875,-0.03125 1.059311,1.270254 2.021943,2.944267 2.28125,6.09375 2.266237,-0.909044 3.875,-2.925566 3.875,-5.59375 -0.08555,-2.601924 -1.541462,-4.611423 -4,-5.625 -0.680148,-0.225329 -1.363612,-0.325754 -2.03125,-0.3125 z M 15.375,34.6875 c -0.279435,2.585586 -0.854558,5.742004 -1.8125,9.6875 l 1.15625,0 0.65625,-1.3125 0,-8.375 z" opacity=".6"/><rect id="rect9637" width="16.312" height=".981" x="29" y="-14.844" fill="url(#linearGradient9691)" fill-opacity="1" fill-rule="evenodd" stroke="none" opacity=".615" transform="matrix(0,1,-1,0,0,0)"/></g><path id="path9639" fill="#000" fill-opacity="1" fill-rule="evenodd" stroke="none" d="M 14.3125,7.0625 C 13.227249,7.087316 12.123399,7.3207085 11.0625,7.75 9.2695198,8.933921 7.864725,10.768315 7.25,13.0625 c -1.3515275,5.043964 1.6273006,10.214997 6.65625,11.5625 3.288812,0.881234 6.624418,-0.08211 8.9375,-2.28125 L 22.5,21.75 c 1.809043,-2.912445 1.940505,-6.792953 0.125,-9.9375 -1.796737,-3.1120416 -5.006603,-4.825594 -8.3125,-4.75 z m -2,4.21875 c 0.764767,-0.09561 1.558222,0.257695 1.96875,0.96875 0.278817,0.482925 0.327948,1.035658 0.1875,1.53125 0.178451,0.411241 0.218388,0.878596 0.09375,1.34375 -0.293265,1.09448 -1.43677,1.762015 -2.53125,1.46875 -1.09448,-0.293264 -1.730765,-1.43677 -1.4375,-2.53125 0.01887,-0.07043 0.06817,-0.120862 0.09375,-0.1875 -0.0033,-0.0098 0.0031,-0.02144 0,-0.03125 -0.274393,-0.86599 0.05473,-1.838917 0.875,-2.3125 0.237018,-0.136842 0.495078,-0.218131 0.75,-0.25 z" opacity=".109"/><g id="g9641" transform="matrix(0.3275569,-1.222459,1.222459,0.3275569,-16.853691,23.191962)"><path id="path9643" fill="url(#linearGradient9693)" fill-opacity="1" fill-rule="evenodd" stroke="url(#linearGradient9695)" stroke-dasharray="none" stroke-linecap="round" stroke-linejoin="miter" stroke-miterlimit="4" stroke-opacity="1" stroke-width=".79" d="m 13.4375,16.5 c -3.9188838,-1e-6 -7.09375,3.157775 -7.09375,7.0625 2e-7,2.818198 1.6046259,5.300595 4,6.4375 l 0,1.5 1.5,1.5 -1.5,1.5 0,1 2,1 0,1 -2,1 0,1 1.5,1.5 -1.5,1.5 0,1 2.5,2 2.5,0 1,-1.5 0,-14 c 2.372429,-1.145434 4,-3.698516 4,-6.5 0,-3.904724 -2.987366,-7 -6.90625,-7 z m -0.09375,2 c 1.104,0 2,0.896 2,2 0,1.104 -0.896,2 -2,2 -1.104,0 -2,-0.896 -2,-2 0,-1.104 0.896,-2 2,-2 z"/><path id="path9645" fill="url(#linearGradient9697)" fill-opacity="1" fill-rule="evenodd" stroke="none" d="M 18.846598,24 8.028422,24 c 0,2.76 2.423271,5 5.409088,5 2.985817,0 5.409088,-2.24 5.409088,-5 z" opacity=".3"/><path id="path9647" fill="none" stroke="#fff" stroke-dasharray="none" stroke-linecap="round" stroke-linejoin="miter" stroke-miterlimit="4" stroke-opacity="1" stroke-width=".79" d="m 13.4375,17.28125 c -3.5016836,-1e-6 -6.3125,2.797504 -6.3125,6.28125 2e-7,2.523398 1.4413689,4.743258 3.5625,5.75 A 0.7767123,0.7767123 0 0 1 11.125,30 l 0,1.15625 1.28125,1.28125 a 0.7767123,0.7767123 0 0 1 0,1.125 l -1.28125,1.28125 0,0.1875 1.5625,0.78125 A 0.7767123,0.7767123 0 0 1 13.125,36.5 l 0,1 a 0.7767123,0.7767123 0 0 1 -0.4375,0.6875 l -1.5625,0.78125 0,0.1875 1.28125,1.28125 a 0.7767123,0.7767123 0 0 1 0,1.125 l -1.28125,1.28125 0,0.28125 2,1.59375 1.78125,0 0.65625,-0.96875 0,-13.75 A 0.7767123,0.7767123 0 0 1 16,29.3125 c 2.090762,-1.009442 3.5625,-3.311816 3.5625,-5.8125 0,-3.508607 -2.615059,-6.21875 -6.125,-6.21875 z m -0.09375,0.4375 c 1.524208,0 2.78125,1.257042 2.78125,2.78125 0,1.524208 -1.257042,2.78125 -2.78125,2.78125 -1.524208,0 -2.78125,-1.257042 -2.78125,-2.78125 0,-1.524208 1.257042,-2.78125 2.78125,-2.78125 z" xlink:href="#path1884"/><path id="path9649" fill="url(#linearGradient9699)" fill-opacity="1" fill-rule="evenodd" stroke="none" d="m 13.40625,17.625 c -0.218712,0.0043 -0.466555,0.03416 -0.6875,0.0625 -0.93254,0.119629 -1.775868,0.460272 -2.53125,0.9375 0.173643,0.634817 0.42464,1.158079 0.71875,1.625 0.125954,-1.319354 1.241853,-2.34375 2.59375,-2.34375 1.436081,0 2.59375,1.157668 2.59375,2.59375 0,1.436083 -1.157669,2.59375 -2.59375,2.59375 -0.07717,0 -0.14697,-0.02119 -0.21875,-0.03125 1.059311,1.270254 2.021943,2.944267 2.28125,6.09375 2.266237,-0.909044 3.875,-2.925566 3.875,-5.59375 -0.08555,-2.601924 -1.541462,-4.611423 -4,-5.625 -0.680148,-0.225329 -1.363612,-0.325754 -2.03125,-0.3125 z M 15.375,34.6875 c -0.279435,2.585586 -0.854558,5.742004 -1.8125,9.6875 l 1.15625,0 0.65625,-1.3125 0,-8.375 z" opacity=".6"/><rect id="rect9651" width="16.312" height=".981" x="29" y="-14.844" fill="url(#linearGradient9701)" fill-opacity="1" fill-rule="evenodd" stroke="none" opacity=".615" transform="matrix(0,1,-1,0,0,0)"/></g><path id="path9653" fill="#000" fill-opacity="1" fill-rule="evenodd" stroke="none" d="M 15.875,5.21875 C 11.900258,5.3327252 8.3470234,7.9683529 7.25,12.0625 c -0.1125043,0.419871 -0.1648077,0.830596 -0.21875,1.25 0.017549,0.731661 0.1125023,1.472349 0.3125,2.21875 1.3537148,5.052137 6.525304,8.068463 11.5625,6.71875 3.502375,-0.938459 6.0903,-3.730965 6.84375,-7.0625 L 27.3125,14.75 c 0.129705,-0.03775 0.248452,-0.09981 0.3125,-0.21875 L 28.25,13.375 25.53125,12.65625 C 24.764566,9.3333908 22.146582,6.4977316 18.65625,5.5625 17.716152,5.3106016 16.792248,5.192448 15.875,5.21875 z m -3.1875,6.3125 c 0.136245,0.0081 0.30069,0.02584 0.4375,0.0625 0.884003,0.236868 1.457988,1.037009 1.5,1.90625 0.02217,0.05995 0.04559,0.12438 0.0625,0.1875 0.291059,1.086248 -0.320002,2.177691 -1.40625,2.46875 -1.086248,0.291059 -2.177691,-0.351252 -2.46875,-1.4375 -0.01656,-0.06179 -0.02057,-0.125817 -0.03125,-0.1875 -0.228777,-0.440265 -0.325579,-0.953432 -0.1875,-1.46875 0.256607,-0.95767 1.140038,-1.587763 2.09375,-1.53125 z" opacity=".061"/><g id="g9655" transform="matrix(-0.3275569,-1.222459,1.222459,-0.3275569,-7.94356,36.230007)"><path id="path9657" fill="url(#linearGradient9703)" fill-opacity="1" fill-rule="evenodd" stroke="url(#linearGradient9705)" stroke-dasharray="none" stroke-linecap="round" stroke-linejoin="miter" stroke-miterlimit="4" stroke-opacity="1" stroke-width=".79" d="m 13.4375,16.5 c -3.9188838,-1e-6 -7.09375,3.157775 -7.09375,7.0625 2e-7,2.818198 1.6046259,5.300595 4,6.4375 l 0,1.5 1.5,1.5 -1.5,1.5 0,1 2,1 0,1 -2,1 0,1 1.5,1.5 -1.5,1.5 0,1 2.5,2 2.5,0 1,-1.5 0,-14 c 2.372429,-1.145434 4,-3.698516 4,-6.5 0,-3.904724 -2.987366,-7 -6.90625,-7 z m -0.09375,2 c 1.104,0 2,0.896 2,2 0,1.104 -0.896,2 -2,2 -1.104,0 -2,-0.896 -2,-2 0,-1.104 0.896,-2 2,-2 z"/><path id="path9659" fill="url(#linearGradient9707)" fill-opacity="1" fill-rule="evenodd" stroke="none" d="M 18.846598,24 8.028422,24 c 0,2.76 2.423271,5 5.409088,5 2.985817,0 5.409088,-2.24 5.409088,-5 z" opacity=".583"/><path id="path9661" fill="none" stroke="#fff" stroke-dasharray="none" stroke-linecap="round" stroke-linejoin="miter" stroke-miterlimit="4" stroke-opacity="1" stroke-width=".79" d="m 13.4375,17.28125 c -3.5016836,-1e-6 -6.3125,2.797504 -6.3125,6.28125 2e-7,2.523398 1.4413689,4.743258 3.5625,5.75 A 0.7767123,0.7767123 0 0 1 11.125,30 l 0,1.15625 1.28125,1.28125 a 0.7767123,0.7767123 0 0 1 0,1.125 l -1.28125,1.28125 0,0.1875 1.5625,0.78125 A 0.7767123,0.7767123 0 0 1 13.125,36.5 l 0,1 a 0.7767123,0.7767123 0 0 1 -0.4375,0.6875 l -1.5625,0.78125 0,0.1875 1.28125,1.28125 a 0.7767123,0.7767123 0 0 1 0,1.125 l -1.28125,1.28125 0,0.28125 2,1.59375 1.78125,0 0.65625,-0.96875 0,-13.75 A 0.7767123,0.7767123 0 0 1 16,29.3125 c 2.090762,-1.009442 3.5625,-3.311816 3.5625,-5.8125 0,-3.508607 -2.615059,-6.21875 -6.125,-6.21875 z m -0.09375,0.4375 c 1.524208,0 2.78125,1.257042 2.78125,2.78125 0,1.524208 -1.257042,2.78125 -2.78125,2.78125 -1.524208,0 -2.78125,-1.257042 -2.78125,-2.78125 0,-1.524208 1.257042,-2.78125 2.78125,-2.78125 z" xlink:href="#path1884"/><path id="path9663" fill="url(#linearGradient9709)" fill-opacity="1" fill-rule="evenodd" stroke="none" d="m 13.40625,17.625 c -0.218712,0.0043 -0.466555,0.03416 -0.6875,0.0625 -0.93254,0.119629 -1.775868,0.460272 -2.53125,0.9375 0.173643,0.634817 0.42464,1.158079 0.71875,1.625 0.125954,-1.319354 1.241853,-2.34375 2.59375,-2.34375 1.436081,0 2.59375,1.157668 2.59375,2.59375 0,1.436083 -1.157669,2.59375 -2.59375,2.59375 -0.07717,0 -0.14697,-0.02119 -0.21875,-0.03125 1.059311,1.270254 2.021943,2.944267 2.28125,6.09375 2.266237,-0.909044 3.875,-2.925566 3.875,-5.59375 -0.08555,-2.601924 -1.541462,-4.611423 -4,-5.625 -0.680148,-0.225329 -1.363612,-0.325754 -2.03125,-0.3125 z M 15.375,34.6875 c -0.279435,2.585586 -0.854558,5.742004 -1.8125,9.6875 l 1.15625,0 0.65625,-1.3125 0,-8.375 z" opacity=".6"/><rect id="rect9665" width="16.312" height=".981" x="29" y="-14.844" fill="url(#linearGradient9711)" fill-opacity="1" fill-rule="evenodd" stroke="none" opacity=".615" transform="matrix(0,1,-1,0,0,0)"/></g><path id="path9667" fill="none" stroke="url(#radialGradient9713)" stroke-dashoffset=".7" stroke-linecap="round" stroke-linejoin="miter" stroke-miterlimit="4" stroke-opacity="1" stroke-width="3" d="m 4.8047213,30.320897 c -2.594124,1.590124 -3.420072,-0.939029 -1.843632,-5.645432 1.57644,-4.706403 4.961246,-9.816629 7.5553707,-11.406753 1.287243,-0.789043 2.112963,-0.643566 2.478739,0.43671"/><path id="path9669" fill="url(#radialGradient9715)" fill-opacity="1" fill-rule="evenodd" stroke="none" d="m 12.0625,2.0625 c 0,0.3106602 -0.405742,0.5625 -0.90625,0.5625 C 10.655742,2.625 10.25,2.3731602 10.25,2.0625 10.25,1.7518398 10.655742,1.5 11.15625,1.5 c 0.500508,0 0.90625,0.2518398 0.90625,0.5625 z" display="inline" enable-background="accumulate" overflow="visible" transform="matrix(0,-1.5911082,2.563452,0,-2.9276547,44.523509)" visibility="visible" style="marker:none"/><path id="path9671" fill="none" stroke="url(#radialGradient9717)" stroke-dashoffset=".7" stroke-linecap="round" stroke-linejoin="miter" stroke-miterlimit="4" stroke-opacity="1" stroke-width="1" d="m 7.7427353,27.481458 c -3.035225,3.850351 -5.535396,4.427652 -5.58074,1.288619 -0.045344,-3.139033 2.381226,-8.811576 5.416451,-12.661926 2.9889427,-3.791641 5.4609727,-4.422284 5.5771947,-1.422808"/><path id="path9673" fill="none" stroke="url(#linearGradient9719)" stroke-dashoffset=".7" stroke-linecap="round" stroke-linejoin="miter" stroke-miterlimit="4" stroke-opacity="1" stroke-width="1" d="M 7.5779723,16.108752 C 10.567078,12.316634 13.039412,11.6857 13.155641,14.685343" opacity=".104"/><path id="path9675" fill="#fff" fill-opacity="1" fill-rule="evenodd" stroke="none" d="m 12.0625,2.0625 c 0,0.3106602 -0.405742,0.5625 -0.90625,0.5625 C 10.655742,2.625 10.25,2.3731602 10.25,2.0625 10.25,1.7518398 10.655742,1.5 11.15625,1.5 c 0.500508,0 0.90625,0.2518398 0.90625,0.5625 z" display="inline" enable-background="accumulate" overflow="visible" transform="matrix(0,-1.1034483,1.7777778,0,-1.2851047,38.994666)" visibility="visible" style="marker:none"/></g></g></svg>